# xmcd CD database file
#
# Track frame offsets:
#	150
#	15136
#	30893
#	43395
#	58893
#	74410
#	89494
#	103470
#	120960
#	138803
#
# Disc length: 2099 seconds
#
# Revision: 0
# Processed by: cddbd v1.5.2PL0 Copyright (c) Steve Scherf et al.
# Submitted via: CDex 1.51
#
DISCID=8108310a
DTITLE=Pascal Dugrenier - Direction Nord
DYEAR=2007
DGENRE=Québécois
TTITLE0=Salut Joe
TTITLE1=Yukon est
TTITLE2=Le roi du Nord
TTITLE3=Ma journée
TTITLE4=Devenir un homme
TTITLE5=Rage de vaincre
TTITLE6=Un Ange du Ciel
TTITLE7=Les frères hors père
TTITLE8=La Francofête
TTITLE9=Ma très chère maman
EXTD=YEAR: 2007
EXTT0=
EXTT1=
EXTT2=
EXTT3=
EXTT4=
EXTT5=
EXTT6=
EXTT7=
EXTT8=
EXTT9=
PLAYORDER=
